<svg width="175" height="62" viewBox="0 0 175 62" fill="none" xmlns="http://www.w3.org/2000/svg">
<rect x="0.142578" y="0.242798" width="174.761" height="61.1185" rx="7.63981" fill="white"/>
<path d="M60.5386 28.3429L54.5789 44.9897H57.2395L58.756 40.4996H65.0483L66.5648 44.9897H69.2786L63.3189 28.3429H60.5253H60.5386ZM59.4079 38.4221L61.8689 31.1174H61.9354L64.3964 38.4221H59.4079ZM77.0874 32.7258C76.316 32.701 75.5525 32.8874 74.8779 33.265C74.2033 33.6426 73.6428 34.1974 73.2562 34.8703H73.2029V32.8598H70.8084V49.0106H73.2828V42.9926H73.336C73.7051 43.671 74.2567 44.2308 74.9273 44.6078C75.5979 44.9847 76.3604 45.1635 77.1273 45.1237C80.147 45.1237 82.1558 42.6977 82.1558 38.9314C82.1558 35.1651 80.147 32.7258 77.0874 32.7258ZM76.4222 43.006C74.5465 43.006 73.2695 41.3708 73.2695 38.918C73.2695 36.5055 74.5465 34.8569 76.4355 34.8569C78.3512 34.8569 79.6149 36.4652 79.6149 38.918C79.6149 41.411 78.3512 43.006 76.4222 43.006ZM90.3371 32.7258C89.5655 32.6996 88.8013 32.8853 88.1265 33.2631C87.4516 33.6408 86.8914 34.1964 86.5058 34.8703H86.4659V32.8598H84.0714V49.0106H86.5324V42.9926H86.5989C86.9681 43.671 87.5197 44.2308 88.1903 44.6078C88.8609 44.9847 89.6234 45.1635 90.3903 45.1237C93.41 45.1237 95.4188 42.6977 95.4188 38.9314C95.4188 35.1651 93.3967 32.7258 90.3371 32.7258ZM89.6852 43.006C87.7962 43.006 86.5324 41.3708 86.5324 38.918C86.5324 36.5055 87.7962 34.8569 89.6852 34.8569C91.6141 34.8569 92.8779 36.4652 92.8779 38.918C92.8779 41.411 91.6141 43.006 89.6852 43.006ZM114.309 40.2047C114.309 43.3143 111.848 45.2711 107.937 45.2711C104.278 45.2711 101.804 43.3679 101.645 40.3522H104.172C104.358 42.0008 105.941 43.0864 108.123 43.0864C110.198 43.0864 111.715 42.0142 111.715 40.513C111.715 39.2263 110.797 38.4489 108.655 37.9262L106.527 37.3901C103.48 36.6663 102.07 35.2456 102.07 32.9134C102.07 30.0451 104.558 28.0749 108.083 28.0749C111.582 28.0749 113.976 30.0451 114.056 32.9134H111.555C111.409 31.2514 110.039 30.2462 108.056 30.2462C106.061 30.2462 104.704 31.2648 104.704 32.7392C104.704 33.9186 105.569 34.6156 107.697 35.1517L109.52 35.594C112.912 36.3982 114.309 37.7654 114.309 40.2047ZM119.657 32.8598H121.945V34.8301H119.657V41.5316C119.657 42.5637 120.109 43.0462 121.12 43.0462C121.386 43.0462 121.652 43.0194 121.931 42.9926V44.9495C121.479 45.0299 121.027 45.0701 120.561 45.0567C118.127 45.0567 117.169 44.1453 117.169 41.7863V34.8301H115.426V32.8598H117.169V29.9915H119.657V32.8598ZM128.969 32.7124C125.51 32.7124 123.275 35.1115 123.275 38.9314C123.275 42.7513 125.483 45.1505 128.982 45.1505C132.481 45.1505 134.702 42.7513 134.702 38.9314C134.702 35.1115 132.467 32.7124 128.982 32.7124H128.969ZM128.969 43.0864C126.973 43.0864 125.776 41.5584 125.776 38.9314C125.776 36.3178 126.973 34.763 128.969 34.763C130.991 34.763 132.175 36.3044 132.175 38.918C132.175 41.5584 130.977 43.0864 128.982 43.0864H128.969ZM142.045 32.7258C142.325 32.7258 142.617 32.766 142.897 32.8196V35.1517C142.535 35.0404 142.157 34.9906 141.779 35.0043C141.421 34.9904 141.064 35.0547 140.733 35.1927C140.402 35.3307 140.104 35.5393 139.86 35.804C139.616 36.0688 139.432 36.3835 139.32 36.7267C139.208 37.0698 139.171 37.4333 139.212 37.7922V44.9897H136.738V32.8598H139.092V34.9239H139.145C139.304 34.2773 139.679 33.7056 140.207 33.3052C140.736 32.9048 141.385 32.7001 142.045 32.7258ZM154.417 39.548V38.6902C154.417 35.0177 152.328 32.7124 149.003 32.7124C145.611 32.7124 143.416 35.1785 143.416 38.985C143.416 42.7781 145.597 45.1505 149.109 45.1505C151.823 45.1505 153.951 43.6359 154.297 41.4244H151.943C151.726 41.9776 151.335 42.4444 150.831 42.7541C150.327 43.0637 149.737 43.1992 149.149 43.14C148.705 43.153 148.263 43.0712 147.853 42.9001C147.442 42.729 147.072 42.4724 146.767 42.1472C146.462 41.822 146.228 41.4354 146.082 41.0129C145.935 40.5904 145.879 40.1414 145.916 39.6954V39.548H154.43H154.417ZM146.169 36.6261C146.398 36.0613 146.789 35.5777 147.291 35.2365C147.793 34.8953 148.384 34.7118 148.989 34.7094C149.591 34.7004 150.18 34.8782 150.678 35.2188C151.175 35.5593 151.557 36.046 151.77 36.6127C151.903 36.988 151.969 37.3901 151.943 37.7922H145.93C145.93 37.3901 146.01 36.988 146.169 36.6127V36.6261ZM62.84 19.7917C62.9068 19.2721 62.8578 18.744 62.6965 18.2458C62.5352 17.7477 62.2657 17.292 61.9077 16.912C61.5496 16.532 61.112 16.2372 60.6267 16.0491C60.1413 15.8609 59.6204 15.7842 59.1019 15.8244H56.2285V23.8126H59.1019C61.4565 23.8126 62.8267 22.3383 62.8267 19.7917H62.84ZM57.4656 22.6868V16.9502H58.9556C59.3232 16.9315 59.6905 16.9943 60.0314 17.1342C60.3723 17.2742 60.6786 17.4878 60.9286 17.7601C61.1785 18.0324 61.3661 18.3567 61.478 18.7101C61.5899 19.0634 61.6234 19.4372 61.5762 19.8051C61.6328 20.1758 61.606 20.5546 61.4979 20.9136C61.3898 21.2725 61.2031 21.6024 60.9516 21.8789C60.7001 22.1555 60.3902 22.3716 60.0447 22.5115C59.6992 22.6513 59.3271 22.7112 58.9556 22.6868H57.4656ZM69.1456 18.5988C68.7455 18.1526 68.2158 17.8451 67.6321 17.72C67.0483 17.595 66.4403 17.6589 65.8947 17.9025C65.3491 18.1462 64.8938 18.5572 64.5937 19.0769C64.2936 19.5967 64.164 20.1986 64.2235 20.7969C64.1865 21.1944 64.2322 21.5952 64.3577 21.9739C64.4833 22.3525 64.6859 22.7006 64.9526 22.9958C65.2193 23.291 65.5442 23.5268 65.9066 23.6883C66.269 23.8497 66.6608 23.9332 67.057 23.9333C67.4533 23.9354 67.8457 23.8534 68.2084 23.6925C68.5711 23.5317 68.8962 23.2956 69.1623 22.9996C69.4284 22.7037 69.6296 22.3546 69.7527 21.9751C69.8759 21.5955 69.9184 21.1941 69.8772 20.7969C69.9138 20.3994 69.8676 19.9986 69.7416 19.6201C69.6157 19.2416 69.4126 18.8937 69.1456 18.5988ZM67.057 22.8878C66.0194 22.8878 65.4474 22.1238 65.4474 20.7969C65.4474 19.4968 66.0194 18.7194 67.0437 18.7194C68.0813 18.7194 68.6667 19.4968 68.6667 20.7969C68.6667 22.1104 68.0813 22.8744 67.057 22.8744V22.8878ZM72.3782 23.826L70.7286 17.7946H71.9259L72.9901 22.3919H73.0832L74.3204 17.7812H75.4511L76.6883 22.3919H76.7814L77.8456 17.7812H79.0429L77.3933 23.8126H76.1562L74.919 19.3762H74.8259L73.602 23.8126H72.3782V23.826ZM84.3241 20.2072C84.3241 19.2422 83.9118 18.7596 83.0338 18.7596C82.735 18.7439 82.4394 18.8271 82.192 18.9965C81.9446 19.1659 81.759 19.4122 81.6636 19.6979C81.5971 19.8855 81.5838 20.1 81.5971 20.2876V23.8126H80.4131V17.7812H81.5571V18.7462H81.6503C81.8006 18.4036 82.0529 18.1164 82.3722 17.9243C82.6915 17.7322 83.0621 17.6448 83.4329 17.674C83.8689 17.6465 84.3016 17.7659 84.6628 18.0134C85.0241 18.2609 85.2934 18.6225 85.4283 19.0411C85.5214 19.3226 85.548 19.6175 85.5081 19.9123V23.8126H84.3241V20.2072ZM88.5811 23.826H87.3838V15.4089H88.5811V23.7992V23.826ZM95.1394 18.5988C94.7393 18.1526 94.2097 17.8451 93.6259 17.72C93.0422 17.595 92.4341 17.6589 91.8885 17.9025C91.3429 18.1462 90.8876 18.5572 90.5875 19.0769C90.2874 19.5967 90.1579 20.1986 90.2173 20.7969C90.1804 21.1933 90.2257 21.593 90.3505 21.9707C90.4753 22.3484 90.6767 22.6958 90.9419 22.9908C91.2072 23.2858 91.5305 23.522 91.8913 23.6842C92.2521 23.8465 92.6424 23.9313 93.0375 23.9333C93.4339 23.9354 93.8262 23.8534 94.1889 23.6925C94.5517 23.5317 94.8767 23.2956 95.1428 22.9996C95.4089 22.7037 95.6101 22.3546 95.7333 21.9751C95.8565 21.5955 95.8989 21.1941 95.8577 20.7969C95.8953 20.4004 95.8508 20.0004 95.7272 19.622C95.6036 19.2437 95.4034 18.8953 95.1394 18.5988ZM93.0375 22.8878C92.0132 22.8878 91.4412 22.1238 91.4412 20.7969C91.4412 19.4968 92.0132 18.7194 93.0375 18.7194C94.0619 18.7194 94.6472 19.4968 94.6472 20.7969C94.6472 22.1104 94.0619 22.8744 93.0508 22.8744L93.0375 22.8878ZM102.137 23.826V19.6979C102.137 18.4246 101.299 17.6606 99.7954 17.6606C98.4385 17.6606 97.4674 18.3307 97.3477 19.3628H98.4917C98.6247 18.9473 99.077 18.6926 99.7289 18.6926C100.54 18.6926 100.966 19.0545 100.966 19.6979V20.2206L99.3431 20.3144C97.9197 20.3948 97.1082 21.0248 97.1082 22.1104C97.1087 22.3653 97.1623 22.6173 97.2655 22.85C97.3686 23.0828 97.5191 23.2911 97.7071 23.4616C97.8952 23.6321 98.1166 23.761 98.3572 23.84C98.5977 23.9189 98.852 23.9461 99.1037 23.9199C99.4606 23.9386 99.8161 23.8616 100.134 23.6968C100.452 23.5319 100.72 23.2852 100.913 22.9816H101.006V23.826H102.137ZM100.966 21.6011C100.951 21.7919 100.899 21.9778 100.812 22.148C100.725 22.3183 100.606 22.4695 100.461 22.593C100.328 22.7136 100.155 22.8074 99.9683 22.861C99.7954 22.9146 99.5959 22.928 99.4096 22.9146C98.7711 22.9146 98.3055 22.593 98.3055 22.0568C98.3055 21.5207 98.678 21.2526 99.5027 21.1856L100.966 21.0918V21.6011ZM106.181 23.9199C106.559 23.9313 106.934 23.8388 107.264 23.6523C107.595 23.4658 107.869 23.1923 108.056 22.861H108.15V23.8126H109.28V15.4223H108.096V18.7596H108.017C107.844 18.4229 107.58 18.143 107.254 17.953C106.929 17.763 106.556 17.6708 106.181 17.6874C104.664 17.6874 103.693 18.8937 103.693 20.8103C103.693 22.727 104.651 23.9333 106.181 23.9333V23.9199ZM106.513 18.7596C107.498 18.7596 108.123 19.5504 108.123 20.8103C108.123 22.0702 107.511 22.8476 106.513 22.8476C105.516 22.8476 104.917 22.0836 104.917 20.7969C104.917 19.5236 105.516 18.7596 106.513 18.7596ZM116.996 23.9333C117.393 23.9373 117.787 23.8567 118.152 23.6967C118.516 23.5366 118.843 23.3008 119.11 23.0047C119.378 22.7085 119.58 22.3588 119.704 21.9783C119.828 21.5978 119.871 21.1952 119.83 20.7969C119.873 20.3008 119.788 19.8017 119.582 19.3487C119.377 18.8958 119.057 18.5047 118.656 18.2139C118.255 17.9231 117.785 17.7426 117.293 17.6903C116.802 17.6379 116.305 17.7154 115.852 17.9152C115.308 18.1574 114.853 18.5661 114.552 19.0833C114.251 19.6006 114.12 20.2001 114.176 20.7969C114.139 21.1933 114.184 21.593 114.309 21.9707C114.434 22.3484 114.635 22.6958 114.9 22.9908C115.166 23.2858 115.489 23.522 115.85 23.6842C116.211 23.8465 116.601 23.9313 116.996 23.9333ZM115.4 20.7969C115.4 19.4968 115.972 18.7194 116.996 18.7194C118.034 18.7194 118.606 19.4968 118.606 20.7969C118.606 22.1104 118.034 22.8744 117.009 22.8744C115.972 22.8744 115.4 22.1104 115.4 20.7969ZM123.448 18.8535C123.263 18.9286 123.096 19.0428 122.958 19.1885C122.82 19.3341 122.715 19.5078 122.65 19.6979C122.597 19.8855 122.57 20.1 122.597 20.2876V23.8126H121.413V17.7812H122.543V18.7462H122.636C122.787 18.4036 123.039 18.1164 123.358 17.9243C123.678 17.7322 124.048 17.6448 124.419 17.674C124.857 17.6434 125.293 17.7614 125.657 18.0091C126.021 18.2569 126.292 18.6201 126.428 19.0411C126.521 19.3226 126.547 19.6175 126.494 19.9123V23.8126H125.31V20.2072C125.31 19.2422 124.898 18.7596 124.02 18.7596C123.834 18.7596 123.621 18.7865 123.448 18.8535ZM132.002 18.8133H131.044V17.808H132.002V16.2801H133.186V17.808H134.476V18.8133H133.186V21.9094C133.186 22.5527 133.452 22.8208 134.024 22.8208C134.183 22.8208 134.33 22.8208 134.476 22.794V23.7858C134.265 23.8267 134.052 23.8491 133.837 23.8529C132.52 23.8529 132.002 23.3837 132.002 22.2177V18.8133ZM137.27 23.8126H136.086V15.4223H137.27V18.7596H137.363C137.52 18.4137 137.78 18.1252 138.106 17.9333C138.432 17.7414 138.809 17.6555 139.185 17.6874C139.475 17.6708 139.766 17.7191 140.035 17.829C140.305 17.9389 140.547 18.1075 140.744 18.3228C140.941 18.538 141.088 18.7946 141.175 19.0741C141.262 19.3536 141.287 19.649 141.247 19.9391V23.826H140.063V20.234C140.063 19.269 139.611 18.7731 138.786 18.7731C138.581 18.7531 138.374 18.7801 138.18 18.8521C137.987 18.924 137.812 19.039 137.669 19.1885C137.526 19.3337 137.416 19.5084 137.348 19.7005C137.279 19.8926 137.252 20.0975 137.27 20.301V23.826V23.8126ZM142.87 21.9898C143.046 22.5622 143.402 23.0614 143.885 23.412C144.367 23.7626 144.949 23.9456 145.544 23.9333C146.11 23.9945 146.68 23.8537 147.154 23.5353C147.628 23.217 147.976 22.7412 148.138 22.1909H147.007C146.869 22.4421 146.66 22.6464 146.407 22.7776C146.153 22.9089 145.867 22.9613 145.584 22.928C145.252 22.9304 144.927 22.8284 144.655 22.6362C144.384 22.4441 144.178 22.1712 144.067 21.8558C143.994 21.6407 143.966 21.4122 143.988 21.1856V21.132H148.218V20.7165C148.218 18.8133 147.207 17.674 145.544 17.674C145.148 17.6706 144.757 17.7528 144.395 17.9149C144.034 18.0771 143.711 18.3155 143.449 18.614C143.186 18.9125 142.991 19.2643 142.875 19.6455C142.759 20.0267 142.726 20.4284 142.777 20.8237C142.724 21.2258 142.75 21.6145 142.87 21.9898ZM144.094 19.6443C144.17 19.4535 144.283 19.2797 144.426 19.1331C144.569 18.9866 144.739 18.87 144.927 18.7902C145.115 18.7104 145.317 18.669 145.521 18.6684C145.725 18.6677 145.927 18.7079 146.116 18.7865C146.398 18.9042 146.637 19.1089 146.797 19.3713C146.957 19.6337 147.031 19.9403 147.007 20.2474H143.988C143.988 20.0329 144.014 19.8453 144.094 19.6443ZM46.0651 36.9075C45.5949 38.4489 44.8855 39.9055 43.9632 41.2234C42.726 43.0864 41.4357 44.9092 39.3737 44.936C37.3783 44.9897 36.7131 43.7566 34.4117 43.7566C32.097 43.7566 31.3787 44.9092 29.4631 44.9897C27.4942 45.0567 26.0043 42.9926 24.7139 41.143C22.1465 37.3901 20.1511 30.5142 22.8382 25.8633C23.4554 24.7448 24.3495 23.8063 25.4336 23.1392C26.5176 22.4722 27.7546 22.0993 29.0241 22.0568C30.9796 22.0166 32.8021 23.3971 34.0127 23.3971C35.1966 23.3971 37.4448 21.7486 39.7728 22.0032C40.861 22.0383 41.9262 22.3278 42.8843 22.8489C43.8424 23.3699 44.6672 24.1082 45.2935 25.0055C44.3117 25.6144 43.4983 26.463 42.9286 27.4728C42.3589 28.4826 42.0513 29.6209 42.0343 30.7823C42.0358 32.0891 42.4187 33.3665 43.1354 34.4557C43.8521 35.5448 44.871 36.3975 46.0651 36.9075ZM36.2608 21.0918C35.476 21.4537 34.6379 21.6413 33.7732 21.6279C33.6662 19.9191 34.2354 18.2372 35.3562 16.9502C36.495 15.6416 38.0815 14.8136 39.7994 14.6315C39.9326 16.3937 39.379 18.1389 38.2563 19.4968C37.7242 20.167 37.0324 20.7165 36.2608 21.0918Z" fill="#2C2927"/>
</svg>
