<svg width="176" height="62" viewBox="0 0 176 62" fill="none" xmlns="http://www.w3.org/2000/svg">
<rect x="0.282227" y="0.242798" width="174.761" height="61.1185" rx="7.63981" fill="white"/>
<path d="M16.5877 16.5752C16.2169 16.946 15.9697 17.564 15.9697 18.3055V45.62C15.9697 46.3616 16.2169 46.9795 16.5877 47.3503L16.7113 47.4739L32.0371 32.1482V31.901L16.5877 16.5752Z" fill="url(#paint0_linear_304_1528)"/>
<path d="M37.1045 37.2156L32.0371 32.1482V31.901L37.1045 26.8336L37.2281 26.9572L43.2842 30.4179C45.0146 31.4066 45.0146 33.0134 43.2842 34.0021L37.1045 37.2156Z" fill="url(#paint1_linear_304_1528)"/>
<path d="M37.1046 37.2155L31.9137 32.0245L16.5879 47.3503C17.2059 47.9683 18.071 47.9683 19.1834 47.4739L37.1046 37.2155Z" fill="url(#paint2_linear_304_1528)"/>
<path d="M37.1046 26.7101L19.0598 16.4517C18.071 15.8337 17.0823 15.9573 16.5879 16.5753L32.0373 32.0247L37.1046 26.7101Z" fill="url(#paint3_linear_304_1528)"/>
<path opacity="0.2" d="M37.1042 37.092L19.0594 47.2268C18.0706 47.8448 17.2054 47.7212 16.5875 47.2268L16.4639 47.3504L16.5875 47.474C17.2054 47.9684 18.0706 48.092 19.0594 47.474L37.1042 37.092Z" fill="black"/>
<path opacity="0.12" d="M16.5877 47.2265C16.2169 46.7321 15.9697 46.2378 15.9697 45.4962V45.6198C15.9697 46.3614 16.2169 46.9793 16.5877 47.3501V47.2265ZM43.1606 33.5075L36.9809 36.9681L37.1045 37.0917L43.1606 33.6311C44.0258 33.1367 44.3966 32.5187 44.3966 31.9008C44.3966 32.5187 44.0258 33.1367 43.1606 33.5075Z" fill="black"/>
<path opacity="0.25" d="M19.0596 16.6988L43.1606 30.2942C43.9022 30.7886 44.3966 31.283 44.3966 31.901C44.3966 31.283 44.0258 30.665 43.1606 30.1706L19.0596 16.4516C17.3293 15.4628 15.9697 16.328 15.9697 18.3055V18.4291C15.9697 16.4516 17.3293 15.71 19.0596 16.6988Z" fill="black"/>
<path d="M159.217 34.2493L152.913 48.8335H150.565L152.913 43.6425L148.835 34.2493H151.307L154.026 40.9234H154.149L156.745 34.2493H159.217ZM134.498 33.5077C134.498 36.474 132.026 38.3279 129.43 38.3279H126.217V44.1368H123.868V28.6875H129.43C132.026 28.6875 134.498 30.5414 134.498 33.5077ZM132.273 33.5077C132.273 32.2717 131.284 30.9122 129.554 30.9122H126.217V36.2268H129.554C131.284 36.2268 132.273 34.7436 132.273 33.5077ZM148.464 38.2043V44.1368H146.239V42.9009H146.116C145.621 43.7661 144.756 44.384 143.149 44.384C141.172 44.384 139.318 43.0245 139.318 40.9234C139.318 38.6987 141.543 37.4627 143.767 37.4627C144.88 37.4627 145.745 37.8335 146.116 38.0807V37.9571C146.116 36.7212 144.88 35.9796 143.644 35.9796C142.779 35.9796 141.913 36.2268 141.543 37.0919L139.441 36.2268C140.183 34.62 141.913 33.8785 143.52 33.8785C146.486 34.0021 148.464 35.4852 148.464 38.2043ZM146.239 39.9346C145.621 39.6874 145.127 39.4402 144.138 39.4402C143.026 39.4402 141.666 39.9346 141.666 41.047C141.666 42.0357 142.778 42.4065 143.52 42.4065C144.88 42.4065 146.116 41.4178 146.239 39.9346ZM81.599 39.1931C81.599 42.1593 79.2507 44.5076 76.2844 44.5076C73.3182 44.5076 70.9699 42.2829 70.9699 39.1931C70.9699 36.1032 73.3182 33.8785 76.2844 33.8785C79.2507 33.8785 81.599 36.2268 81.599 39.1931ZM79.3743 39.1931C79.3743 37.3391 78.0148 35.9796 76.408 35.9796C74.8013 35.9796 73.4418 37.2155 73.4418 39.1931C73.4418 41.047 74.8013 42.4065 76.408 42.4065C78.0148 42.4065 79.3743 41.047 79.3743 39.1931ZM62.689 35.6088V37.8335H68.0036C67.88 39.0695 67.3856 40.0582 66.7676 40.6762C66.0261 41.4178 64.7901 42.2829 62.689 42.2829C59.3519 42.2829 56.88 39.6874 56.88 36.3504C56.8538 35.1939 57.172 34.0558 57.7941 33.0806C58.4162 32.1054 59.3142 31.3371 60.374 30.8735C61.4337 30.4098 62.6074 30.2717 63.7459 30.4767C64.8843 30.6816 65.9361 31.2204 66.7676 32.0245L68.3744 30.4178C66.8838 28.9758 64.8865 28.1769 62.8126 28.1931C58.3632 28.1931 54.5317 31.901 54.5317 36.3504C54.5317 40.7998 58.3632 44.5076 62.8126 44.5076C65.2845 44.5076 67.0148 43.7661 68.498 42.1593C69.9811 40.6762 70.4755 38.5751 70.4755 36.9683C70.4755 36.474 70.4755 35.9796 70.3519 35.6088H62.689ZM93.0933 39.1931C93.0933 42.1593 90.745 44.5076 87.7788 44.5076C87.0762 44.5246 86.3776 44.3987 85.7251 44.1376C85.0726 43.8765 84.48 43.4857 83.9831 42.9887C83.4862 42.4918 83.0953 41.8992 82.8342 41.2467C82.5731 40.5943 82.4472 39.8956 82.4642 39.1931C82.4642 36.1032 84.8125 33.8785 87.7788 33.8785C90.745 34.0021 93.0933 36.2268 93.0933 39.1931ZM90.8686 39.1931C90.8686 37.3391 89.5091 35.9796 87.9024 35.9796C86.2956 35.9796 84.9361 37.2155 84.9361 39.1931C84.9361 41.047 86.2956 42.4065 87.9024 42.4065C89.5091 42.4065 90.8686 41.047 90.8686 39.1931ZM118.925 37.9571L111.88 40.9234C112.374 42.0357 113.239 42.5301 114.475 42.5301C115.711 42.5301 116.453 41.9121 117.071 41.047L118.925 42.2829C118.315 43.238 117.407 43.966 116.343 44.3547C115.278 44.7435 114.115 44.7714 113.034 44.4341C111.952 44.0969 111.01 43.4132 110.355 42.4885C109.7 41.5637 109.367 40.4492 109.408 39.3166C109.408 36.2268 111.633 34.0021 114.352 34.0021C117.071 34.0021 118.43 36.2268 118.801 37.3391L118.925 37.9571ZM116.206 37.0919C115.958 36.474 115.217 35.9796 114.228 35.9796C112.992 35.9796 111.385 36.9683 111.509 39.0695L116.206 37.0919ZM135.857 44.1368H138.205V28.6875H135.857V44.1368ZM105.824 44.1368H108.172V28.6875H105.824V44.1368ZM101.992 34.2493H104.217V43.6425C104.217 47.4739 101.869 49.0806 99.2731 49.0806C96.6776 49.0806 95.1945 47.3503 94.5765 45.9908L96.554 45.1256C96.9248 45.9908 97.79 46.9795 99.1495 46.9795C100.88 46.9795 101.992 45.8672 101.992 43.8897V43.1481H101.869C101.374 43.7661 100.385 44.384 99.1495 44.384C96.554 44.384 94.0821 42.0357 94.0821 39.1931C94.0821 36.2268 96.4304 33.8785 99.1495 33.8785C100.385 33.8785 101.374 34.4964 101.869 35.1144H101.992V34.2493ZM102.116 39.1931C102.116 37.3391 100.88 35.9796 99.2731 35.9796C97.6664 35.9796 96.3068 37.3391 96.3068 39.1931C96.3068 41.047 97.6664 42.4065 99.2731 42.4065C100.88 42.4065 102.116 41.047 102.116 39.1931ZM89.2619 22.2606C88.5203 21.519 88.1496 20.6538 88.1496 19.5415C88.1496 18.4291 88.5203 17.5639 89.2619 16.8224C90.0035 15.9572 90.8686 15.5864 91.981 15.5864C93.0933 15.5864 93.9585 15.9572 94.7001 16.6988C95.4416 17.4403 95.8124 18.3055 95.8124 19.4179C95.8124 20.5302 95.4416 21.3954 94.7001 22.137C93.9585 22.8785 93.0933 23.2493 91.981 23.2493C90.8686 23.3729 90.0035 23.0021 89.2619 22.2606ZM89.1383 19.5415C89.1383 20.4066 89.3855 21.1482 90.0035 21.6426C90.4979 22.2606 91.2394 22.5077 91.981 22.5077C92.7226 22.5077 93.4641 22.2606 93.9585 21.6426C94.4529 21.1482 94.8237 20.4066 94.8237 19.5415C94.8237 18.6763 94.5765 17.9347 93.9585 17.4403C93.4641 16.8224 92.7226 16.5752 91.981 16.5752C91.2394 16.5752 90.4979 16.8224 90.0035 17.4403C89.3855 17.9347 89.1383 18.6763 89.1383 19.5415ZM58.6104 23.3729C59.7227 23.3729 60.5879 23.0021 61.3295 22.2606C61.9474 21.6426 62.1946 20.7774 62.1946 19.7887V19.1707H58.6104V20.0358H61.3295C61.3295 20.6538 61.0823 21.1482 60.7115 21.519C60.2171 22.0134 59.4755 22.3841 58.6104 22.3841C57.8688 22.3841 57.1272 22.137 56.6329 21.519C56.0149 21.0246 55.7677 20.283 55.7677 19.4179C55.7677 18.5527 56.0149 17.8111 56.6329 17.3168C57.2508 16.8224 57.8688 16.4516 58.6104 16.4516C59.4755 16.4516 60.0935 16.6988 60.5879 17.3168L61.3295 16.8224C61.0823 16.4516 60.7115 16.2044 60.2171 15.9572C59.7227 15.71 59.2283 15.5864 58.6104 15.5864C57.498 15.5864 56.6328 15.9572 55.8913 16.6988C55.1497 17.4403 54.7789 18.3055 54.7789 19.4179C54.7789 20.5302 55.1497 21.3954 55.8913 22.137C56.6328 23.0021 57.6216 23.3729 58.6104 23.3729ZM68.0036 22.2606H64.6665V19.9122H67.7564V19.0471H64.6665V16.6988H68.0036V15.8336H63.6778V23.2493H68.0036V22.2606ZM72.0822 23.2493V16.6988H74.0597V15.8336H68.9923V16.6988H71.0935V23.2493H72.0822ZM78.7563 15.8336H77.7676V23.2493H78.7563V15.8336ZM82.9586 23.2493V16.6988H85.0597V15.8336H79.9923V16.6988H82.0934V23.2493H82.9586ZM98.0371 18.5527V17.0696L101.869 23.1257H102.857V15.71H101.869V21.519L98.2843 15.71H97.172V23.1257H98.1607V18.5527H98.0371Z" fill="#2C2927"/>
<defs>
<linearGradient id="paint0_linear_304_1528" x1="30.591" y1="17.9965" x2="9.83942" y2="38.7358" gradientUnits="userSpaceOnUse">
<stop stop-color="#00A0FF"/>
<stop offset="0.01" stop-color="#00A1FF"/>
<stop offset="0.26" stop-color="#00BEFF"/>
<stop offset="0.51" stop-color="#00D2FF"/>
<stop offset="0.76" stop-color="#00DFFF"/>
<stop offset="1" stop-color="#00E3FF"/>
</linearGradient>
<linearGradient id="paint1_linear_304_1528" x1="45.4595" y1="31.9504" x2="15.5619" y2="31.9504" gradientUnits="userSpaceOnUse">
<stop stop-color="#FFE000"/>
<stop offset="0.41" stop-color="#FFBD00"/>
<stop offset="0.78" stop-color="#FFA500"/>
<stop offset="1" stop-color="#FF9C00"/>
</linearGradient>
<linearGradient id="paint2_linear_304_1528" x1="34.3238" y1="34.7931" x2="6.20592" y2="62.9109" gradientUnits="userSpaceOnUse">
<stop stop-color="#FF3A44"/>
<stop offset="1" stop-color="#C31162"/>
</linearGradient>
<linearGradient id="paint3_linear_304_1528" x1="12.6699" y1="7.45399" x2="25.2272" y2="20.0112" gradientUnits="userSpaceOnUse">
<stop stop-color="#32A071"/>
<stop offset="0.07" stop-color="#2DA771"/>
<stop offset="0.48" stop-color="#15CF74"/>
<stop offset="0.8" stop-color="#06E775"/>
<stop offset="1" stop-color="#00F076"/>
</linearGradient>
</defs>
</svg>
